HIERARCHY
ROOT hip
{
	OFFSET 0.000000 0.000000 0.000000 
	CHANNELS 6 Xposition Yposition Zposition Xrotation Zrotation Yrotation
	JOINT abdomen
	{
		OFFSET 0.000000 3.402643 0.000000 
		CHANNELS 3 Xrotation Zrotation Yrotation
		JOINT chest
		{
			OFFSET 0.000000 8.438565 -0.680529 
			CHANNELS 3 Xrotation Zrotation Yrotation
			JOINT neck
			{
				OFFSET 0.000000 10.207942 -0.272212 
				CHANNELS 3 Xrotation Zrotation Yrotation
				JOINT head
				{
					OFFSET 0.000000 3.130431 0.000000 
					CHANNELS 3 Xrotation Zrotation Yrotation
					End Site
					{
						OFFSET 0.000000 3.130435 0.000000 
					}
				}
			}
			JOINT lCollar
			{
				OFFSET 3.470700 6.669187 -0.816635 
				CHANNELS 3 Yrotation Zrotation Xrotation
				JOINT lShldr
				{
					OFFSET 3.198488 0.000000 0.000000 
					CHANNELS 3 Zrotation Yrotation Xrotation
					JOINT lForeArm
					{
						OFFSET 10.139888 0.000000 0.000000 
						CHANNELS 3 Yrotation Zrotation Xrotation
						JOINT lHand
						{
							OFFSET 8.370511 0.000000 0.000000 
							CHANNELS 3 Zrotation Yrotation Xrotation
							End Site
							{
								OFFSET 4.083176 0.000000 0.000000 
							}
						}
					}
				}
			}
			JOINT rCollar
			{
				OFFSET -3.470700 6.669187 -0.816635 
				CHANNELS 3 Yrotation Zrotation Xrotation
				JOINT rShldr
				{
					OFFSET -3.198488 0.000000 0.000000 
					CHANNELS 3 Zrotation Yrotation Xrotation
					JOINT rForeArm
					{
						OFFSET -10.139888 0.000000 0.000000 
						CHANNELS 3 Yrotation Zrotation Xrotation
						JOINT rHand
						{
							OFFSET -8.370511 0.000000 0.000000 
							CHANNELS 3 Zrotation Yrotation Xrotation
							End Site
							{
								OFFSET -4.083176 0.000000 0.000000 
							}
						}
					}
				}
			}
		}
	}
	JOINT lThigh
	{
		OFFSET 5.308129 -1.633274 1.361059 
		CHANNELS 3 Xrotation Zrotation Yrotation
		JOINT lShin
		{
			OFFSET -2.041588 -20.007561 0.000000 
			CHANNELS 3 Xrotation Zrotation Yrotation
			JOINT lFoot
			{
				OFFSET 0.000000 -19.190928 -1.224953 
				CHANNELS 3 Xrotation Yrotation Zrotation
				End Site
				{
					OFFSET 0.000000 -2.449906 4.627600 
				}
			}
		}
	}
	JOINT rThigh
	{
		OFFSET -5.308129 -1.633274 1.361059 
		CHANNELS 3 Xrotation Zrotation Yrotation
		JOINT rShin
		{
			OFFSET 2.041588 -20.007561 0.000000 
			CHANNELS 3 Xrotation Zrotation Yrotation
			JOINT rFoot
			{
				OFFSET 0.000000 -19.190928 -1.224953 
				CHANNELS 3 Xrotation Yrotation Zrotation
				End Site
				{
					OFFSET 0.000000 -2.449906 4.627600 
				}
			}
		}
	}
}
MOTION
Frames: 11
Frame Time: 0.033333
-1.192559 50.711399 28.240843 -4.635001 6.926434 53.720898 0.000000 0.000000 0.000000 17.095900 2.087007 -8.355056 -19.133642 -1.903168 -1.973838 8.736933 -1.473573 -2.149233 -3.521967 9.154817 6.304141 -61.752773 -4.379786 -30.501019 -20.925219 8.072421 8.296602 4.469197 -6.416014 -8.055223 3.089181 -14.089146 8.026228 64.059296 13.453649 -25.165298 9.455890 -8.432504 37.007080 3.635019 5.507031 -7.136269 1.111209 11.381468 12.851442 13.104105 -4.457014 -28.023157 1.449669 0.165436 -4.035016 -2.197210 -7.457613 -13.871239 22.269554 1.269290 3.096413 -10.878459 0.804037 -6.105464 
-0.880344 50.810410 27.856085 -4.037530 6.515267 53.774078 0.000000 0.000000 0.000000 17.049671 1.197950 -8.400265 -19.212219 -1.287873 -2.461632 8.888429 -2.166499 -2.111189 -3.521967 9.154817 6.304141 -65.140358 -3.997195 -29.253550 -20.533531 8.030619 13.830498 7.561722 -7.501888 -8.563191 3.089181 -14.089146 8.026228 66.438210 12.375034 -24.348799 9.458577 -8.328065 37.761799 3.272533 4.826732 -7.262689 1.208351 10.568130 12.551846 11.641470 -4.785971 -28.042103 1.558257 0.144998 -4.051533 -2.607290 -8.277674 -14.057188 21.726290 1.269345 3.497303 -9.931327 0.702833 -5.741587 
-0.585350 50.825188 27.474689 -4.146828 6.073029 53.102627 0.000000 0.000000 0.000000 17.386692 1.074564 -7.559822 -18.794752 -0.848514 -2.910560 8.860030 -2.634813 -2.180369 -3.521967 9.154817 6.304141 -68.389313 -3.979804 -27.651127 -20.039246 7.809244 17.689558 10.336751 -7.758833 -9.043167 3.089181 -14.089146 8.026228 68.385071 11.555614 -23.917652 9.617523 -8.366193 40.311188 3.827203 5.158104 -7.147391 0.985970 10.360005 12.518907 11.920370 -4.941221 -27.354786 0.905757 0.188344 -3.585261 -2.694812 -8.489075 -13.908950 20.996700 1.269441 4.181129 -9.288047 0.697095 -5.757212 
-0.325820 50.865063 27.115713 -4.570054 6.122507 52.177822 0.000000 0.000000 0.000000 18.630093 1.202884 -6.612735 -18.204212 -0.702099 -3.095949 8.497170 -2.800635 -2.219873 -3.521967 9.154817 6.304141 -71.408913 -4.276584 -25.907906 -19.614622 7.420235 18.730335 12.672335 -7.308272 -9.424116 3.089181 -14.089146 8.026228 69.990044 11.322124 -23.205372 9.709982 -8.358458 43.950638 1.859830 5.455993 -7.422369 1.015309 9.813400 11.825232 12.569222 -4.424913 -25.356499 0.290728 0.180425 -3.563217 -2.031118 -8.627150 -13.864606 19.776646 1.318175 4.819011 -8.581108 0.700804 -5.928758 
-0.089267 50.938240 26.805613 -4.849706 6.344018 51.414864 0.000000 0.000000 0.000000 20.238625 1.252782 -6.036484 -18.135942 -0.526594 -3.056781 8.325974 -2.869236 -2.063340 -3.521967 9.154817 6.304141 -74.289261 -4.622842 -25.166037 -19.454992 7.321964 19.394554 13.438565 -6.934686 -9.537650 3.089181 -14.089146 8.026228 71.440399 11.701841 -22.602554 9.767407 -8.313107 46.225250 0.669867 5.508699 -7.587432 1.267689 9.290244 11.482475 12.883507 -4.297674 -23.937796 -0.415555 0.202494 -3.258708 -1.445443 -9.022511 -14.031122 18.924829 1.403365 5.499516 -7.612556 0.597580 -5.823162 
0.107276 50.970768 26.519335 -4.833131 6.204000 50.880508 0.000000 0.000000 0.000000 21.050886 1.486565 -5.773335 -17.907236 -0.653503 -2.822528 7.930390 -2.596146 -1.955543 -3.521967 9.154817 6.304141 -76.860458 -4.727217 -24.378555 -19.366159 7.221225 19.385612 12.432948 -6.257073 -9.346640 3.089181 -14.089146 8.026228 72.827057 12.131726 -22.112150 9.718872 -8.229130 46.562336 1.917171 6.032146 -7.351687 1.130768 8.890678 11.261030 12.970024 -4.317423 -22.875599 -0.480143 0.230208 -3.300945 -1.582168 -9.407009 -14.090124 18.647898 1.422914 6.101688 -6.720853 0.534052 -5.475567 
0.269205 50.975109 26.284800 -4.867742 5.953180 50.431519 0.000000 0.000000 0.000000 21.526106 1.982855 -5.549963 -17.102810 -1.083024 -2.412601 6.999190 -1.942252 -1.934799 -3.521967 9.154817 6.304141 -79.037743 -4.742239 -23.497335 -19.288834 7.125943 19.202139 10.544966 -5.700838 -9.011882 3.089181 -14.089146 8.026228 74.044281 12.550979 -21.711895 9.701587 -8.180916 47.064701 2.063449 5.736668 -7.361346 0.838516 8.581094 10.908099 13.267199 -4.143357 -21.917728 -0.939107 0.207433 -3.072936 -1.719193 -9.520984 -14.015308 18.227837 1.403506 6.379547 -6.134431 0.499464 -5.290891 
0.411914 50.999344 26.097473 -4.903625 5.855048 50.043083 0.000000 0.000000 0.000000 21.833376 2.323842 -5.346102 -16.330273 -1.532164 -2.110187 6.175910 -1.542063 -1.963756 -3.521967 9.154817 6.304141 -80.572662 -4.777451 -22.365833 -19.243914 7.030140 18.803379 7.991055 -5.188561 -8.618309 3.089181 -14.089146 8.026228 75.344124 12.971404 -22.455513 9.989254 -8.457138 47.458458 2.936299 6.481623 -7.154999 0.702726 8.319373 10.748910 13.459550 -4.102633 -20.964371 -1.069769 0.221780 -3.225668 -1.562811 -9.693057 -14.087264 17.516432 1.491422 6.657350 -5.705813 0.465405 -5.289376 
0.523469 51.049496 25.941139 -4.921455 5.717420 49.533123 0.000000 0.000000 0.000000 22.107931 2.520038 -4.907038 -15.576957 -1.932413 -2.003119 5.303289 -1.346751 -2.100406 -3.521967 9.154817 6.304141 -81.620682 -4.948380 -21.446457 -19.267616 7.062745 19.546862 3.599413 -4.146351 -7.995208 3.089181 -14.089146 8.026228 76.660332 13.223156 -23.187662 10.331532 -8.755960 48.381336 2.872872 6.591571 -7.154064 0.604248 8.061543 10.522081 13.470794 -3.985116 -19.922815 -0.920844 0.246570 -3.623286 -1.328773 -9.859677 -14.141670 16.639027 1.686622 7.201967 -5.097456 0.426864 -5.233975 
0.608413 51.099155 25.806576 -4.949670 5.471807 48.961933 0.000000 0.000000 0.000000 22.366034 2.561135 -4.300867 -14.819251 -1.678485 -2.169040 4.481678 -1.317482 -2.090414 -3.521967 9.154817 6.304141 -82.358948 -5.274004 -20.616167 -19.307474 7.031816 18.894461 -0.169335 -3.656715 -7.474530 3.089181 -14.089146 8.026228 77.800644 13.290049 -22.990658 10.481144 -8.771827 49.258518 1.803267 5.517097 -7.415230 0.721341 7.896698 10.372281 12.962842 -3.916655 -19.025145 -1.012726 0.258893 -3.745163 -1.260389 -9.841451 -14.053568 15.779054 1.774618 7.712624 -4.332637 0.387487 -5.006949 
0.651711 51.144524 25.694965 -4.940651 5.201464 48.499210 0.000000 0.000000 0.000000 22.479166 2.591617 -3.910197 -14.397618 -1.414927 -2.246855 3.979860 -1.249215 -2.031832 -3.521967 9.154817 6.304141 -82.800247 -5.559305 -20.008938 -19.272564 6.959114 18.410463 -1.741527 -2.982065 -7.316595 3.089181 -14.089146 8.026228 78.626892 13.400545 -22.773497 10.531285 -8.758674 49.315987 2.457049 5.775664 -7.293548 0.731752 7.792637 10.187045 12.464757 -3.799546 -18.231407 -0.886645 0.260237 -4.109964 -1.221252 -9.776839 -13.971663 14.863880 1.882016 7.997424 -3.634730 0.347451 -4.823968 
